<svg xmlns="http://www.w3.org/2000/svg" viewBox="0 0 512 512">
<defs><linearGradient id="b" x1="0" y1="1" x2="1" y2="0"><stop stop-color="#0877e8"/><stop offset="1" stop-color="#20b8ff"/></linearGradient><filter id="s"><feDropShadow dx="0" dy="8" stdDeviation="10" flood-opacity=".28"/></filter></defs>
<rect width="512" height="512" rx="92" fill="#fff"/>
<path d="M512 0v105c-66 28-112 78-137 143-30 77-89 135-177 170-61 24-126 49-198 94H0v-88c83-48 150-73 211-98 74-30 120-74 144-136C382 112 438 49 512 0z" fill="url(#b)"/>
<g filter="url(#s)">
<text x="256" y="205" text-anchor="middle" font-family="Arial,Helvetica,sans-serif" font-size="105" font-weight="800" fill="#111827" letter-spacing="-7">CR<tspan fill="#147bea">V</tspan>T</text>
<text x="256" y="252" text-anchor="middle" font-family="Arial,Helvetica,sans-serif" font-size="24" font-weight="700" fill="#111827" letter-spacing="3">COMPTE RENDU</text>
<text x="256" y="281" text-anchor="middle" font-family="Arial,Helvetica,sans-serif" font-size="20" font-weight="700" fill="#111827" letter-spacing="2">DE VISITE TECHNIQUE</text>
<rect x="315" y="325" width="104" height="126" rx="10" fill="#fff" stroke="#0d1725" stroke-width="10"/>
<path d="M337 356h59M337 382h59M337 408h42" stroke="#0d1725" stroke-width="9" stroke-linecap="round"/>
<circle cx="399" cy="421" r="37" fill="#147bea"/>
<path d="M380 421l12 12 24-27" fill="none" stroke="#fff" stroke-width="9" stroke-linecap="round" stroke-linejoin="round"/>
</g></svg>